<svg width="968" height="692" viewBox="0 0 968 692" fill="none" xmlns="http://www.w3.org/2000/svg">
<rect width="968" height="692" fill="white"/>
<g clip-path="url(#clip0_5_173)">
<rect x="5" width="963" height="692" rx="1.6892" fill="#323040"/>
<g filter="url(#filter0_f_5_173)">
<ellipse cx="772.131" cy="290.025" rx="242.131" ry="238.975" fill="#DA2AE0"/>
</g>
<g filter="url(#filter1_f_5_173)">
<ellipse cx="822.869" cy="111.975" rx="242.131" ry="238.975" fill="#58FBDA"/>
</g>
<circle cx="489" cy="277" r="243.839" fill="#58FBDA" stroke="#2E2D36" stroke-width="7.67819"/>
<path d="M542.539 340.481L564.576 362.018L580.316 364.898L588.993 372.768" stroke="#2E2D36" stroke-width="7.67819" stroke-linecap="round"/>
<path d="M510.79 351.269V405.323L531.253 426.323V443.906" stroke="#2E2D36" stroke-width="7.67819" stroke-linecap="round"/>
<path d="M437.809 340.75L419.727 361.75L403.18 364.13L389.283 374.342" stroke="#2E2D36" stroke-width="7.67819" stroke-linecap="round"/>
<path d="M492.5 88.8389C564.703 88.8389 623.161 146.707 623.161 218C623.161 289.293 564.703 347.161 492.5 347.161C420.297 347.161 361.839 289.293 361.839 218C361.839 146.707 420.297 88.8389 492.5 88.8389Z" fill="#79FFE6" stroke="#2E2D36" stroke-width="7.67819"/>
<path d="M489.79 137.162C528.024 137.163 558.971 167.87 558.971 205.691C558.971 243.511 528.024 274.218 489.79 274.218C451.557 274.218 420.61 243.511 420.61 205.691C420.61 167.87 451.557 137.162 489.79 137.162Z" fill="white" stroke="#2E2D36" stroke-width="6.14255"/>
<circle cx="358.455" cy="336.22" r="11.4789" fill="white" stroke="#2E2D36" stroke-width="4.60691"/>
<circle cx="377.881" cy="382.135" r="11.4789" fill="white" stroke="#2E2D36" stroke-width="4.60691"/>
<circle cx="411.665" cy="418.223" r="11.4789" fill="white" stroke="#2E2D36" stroke-width="4.60691"/>
<circle cx="489.829" cy="465.367" r="11.4789" fill="white" stroke="#2E2D36" stroke-width="4.60691"/>
<circle cx="533.902" cy="455.846" r="11.4789" fill="white" stroke="#2E2D36" stroke-width="4.60691"/>
<path d="M533.364 344.973V381.982L558.011 407.934" stroke="#2E2D36" stroke-width="7.67819" stroke-linecap="round"/>
<circle cx="565.92" cy="418.223" r="11.4789" fill="white" stroke="#2E2D36" stroke-width="4.60691"/>
<circle cx="599.473" cy="381.521" r="11.4789" fill="white" stroke="#2E2D36" stroke-width="4.60691"/>
<circle cx="614.676" cy="336.143" r="11.4789" fill="white" stroke="#2E2D36" stroke-width="4.60691"/>
<path d="M414.199 327.697L403.833 336.604H371.968" stroke="#2E2D36" stroke-width="7.67819" stroke-linecap="round"/>
<path d="M451.476 346.278V378.565L421.301 408.471" stroke="#2E2D36" stroke-width="7.67819" stroke-linecap="round"/>
<path d="M467.216 350.463V407.934L447.023 429.471V443.638" stroke="#2E2D36" stroke-width="7.67819" stroke-linecap="round"/>
<path d="M490.059 353.112V451.776" stroke="#2E2D36" stroke-width="7.67819" stroke-linecap="round"/>
<path d="M564.039 327.889L570.335 333.955H601.585" stroke="#2E2D36" stroke-width="7.67819" stroke-linecap="round"/>
<ellipse cx="489.79" cy="205.69" rx="40.0034" ry="41.0399" fill="#2E2D36"/>
<ellipse cx="497.737" cy="195.018" rx="14.3966" ry="14.7805" fill="white"/>
<ellipse cx="511.059" cy="216.977" rx="6.52646" ry="6.71842" fill="white"/>
<circle cx="445.756" cy="456.844" r="11.4789" fill="white" stroke="#2E2D36" stroke-width="4.60691"/>
</g>
<path d="M372.176 560.84L360.656 578.632C360.186 579.4 359.674 580.061 359.12 580.616C358.565 581.171 358.01 581.64 357.456 582.024V582.216C358.053 582.557 358.693 583.069 359.376 583.752C360.058 584.435 360.613 585.16 361.04 585.928L372.944 605H362L348.368 581.896L361.616 560.84H372.176ZM346.896 560.84V573.32C346.896 574.771 346.789 576.221 346.576 577.672C346.362 579.08 346.021 580.467 345.552 581.832C345.893 583.155 346.192 584.52 346.448 585.928C346.746 587.293 346.896 588.573 346.896 589.768V605H337.168V560.84H346.896ZM351.888 578.632V585.416H343.952V578.632H351.888ZM384.514 573.384L385.666 579.656L386.562 580.488V605H377.09V573.384H384.514ZM399.938 572.552L399.042 581.32H396.418C394.925 581.32 393.367 581.533 391.746 581.96C390.125 582.387 388.077 583.027 385.602 583.88L384.962 578.568C387.181 576.605 389.421 575.112 391.682 574.088C393.943 573.064 396.141 572.552 398.274 572.552H399.938ZM418.878 572.552C424.212 572.552 428.031 573.469 430.335 575.304C432.681 577.096 433.854 579.784 433.854 583.368C433.897 586.269 433.172 588.445 431.679 589.896C430.185 591.304 427.604 592.008 423.935 592.008H406.271V586.696H421.311C422.761 586.696 423.679 586.397 424.063 585.8C424.489 585.16 424.703 584.285 424.703 583.176C424.66 581.683 424.212 580.659 423.359 580.104C422.548 579.507 421.161 579.208 419.199 579.208C417.449 579.208 416.084 579.443 415.103 579.912C414.121 580.381 413.439 581.277 413.055 582.6C412.671 583.923 412.479 585.843 412.479 588.36C412.479 591.005 412.713 593.053 413.183 594.504C413.652 595.912 414.441 596.893 415.551 597.448C416.703 598.003 418.281 598.28 420.287 598.28C421.737 598.28 423.529 598.237 425.663 598.152C427.839 598.024 430.015 597.832 432.191 597.576L433.087 603.4C431.849 603.997 430.441 604.467 428.863 604.808C427.284 605.149 425.663 605.384 423.999 605.512C422.335 605.683 420.735 605.768 419.199 605.768C415.188 605.768 411.945 605.192 409.47 604.04C407.039 602.845 405.268 601.032 404.159 598.6C403.092 596.168 402.559 593.053 402.559 589.256C402.559 585.117 403.113 581.832 404.223 579.4C405.332 576.968 407.081 575.219 409.47 574.152C411.86 573.085 414.996 572.552 418.878 572.552ZM449.308 573.384V594.184C449.308 595.507 449.585 596.445 450.14 597C450.737 597.555 451.676 597.832 452.956 597.832C454.278 597.832 455.58 597.597 456.86 597.128C458.182 596.616 459.804 595.827 461.724 594.76L462.492 599.944C460.188 601.949 457.926 603.443 455.708 604.424C453.489 605.405 451.206 605.896 448.86 605.896C442.844 605.896 439.836 602.952 439.836 597.064V573.384H449.308ZM470.236 573.384V605H462.748L461.66 598.792L460.764 597.896V573.384H470.236ZM494.093 579.912L504.973 579.976L487.501 598.536L476.621 598.472L494.093 579.912ZM505.293 598.472V605H476.621V598.472H505.293ZM504.973 573.384V579.976H476.877V573.384H504.973ZM531.557 572.552C535.738 572.552 538.725 573.832 540.517 576.392C542.351 578.909 543.269 583.091 543.269 588.936C543.269 591.368 543.034 593.608 542.565 595.656C542.138 597.704 541.349 599.496 540.197 601.032C539.087 602.525 537.53 603.699 535.525 604.552C533.519 605.363 530.917 605.768 527.717 605.768C526.607 605.768 525.327 605.704 523.877 605.576C522.426 605.491 520.933 605.341 519.397 605.128C517.903 604.957 516.474 604.723 515.109 604.424C513.743 604.083 512.57 603.699 511.589 603.272L519.141 597.832C519.951 598.088 520.847 598.323 521.829 598.536C522.81 598.707 523.813 598.835 524.837 598.92C525.861 598.963 526.757 598.963 527.525 598.92C528.975 598.877 530.127 598.579 530.981 598.024C531.877 597.427 532.517 596.424 532.901 595.016C533.285 593.565 533.477 591.56 533.477 589C533.477 586.653 533.306 584.84 532.965 583.56C532.666 582.237 532.09 581.32 531.237 580.808C530.426 580.253 529.274 579.976 527.781 579.976C526.373 579.976 525.093 580.275 523.941 580.872C522.789 581.469 521.509 582.259 520.101 583.24L519.397 578.76C520.506 577.565 521.701 576.499 522.981 575.56C524.261 574.621 525.626 573.896 527.077 573.384C528.527 572.829 530.021 572.552 531.557 572.552ZM521.061 560.2L521.125 570.44C521.125 571.891 521.039 573.299 520.869 574.664C520.741 575.987 520.485 577.288 520.101 578.568L520.997 579.4L521.061 603.72L511.589 603.272V560.2H521.061ZM564.628 572.552C569.962 572.552 573.781 573.469 576.085 575.304C578.431 577.096 579.604 579.784 579.604 583.368C579.647 586.269 578.922 588.445 577.429 589.896C575.935 591.304 573.354 592.008 569.685 592.008H552.021V586.696H567.061C568.511 586.696 569.429 586.397 569.813 585.8C570.239 585.16 570.453 584.285 570.453 583.176C570.41 581.683 569.962 580.659 569.109 580.104C568.298 579.507 566.911 579.208 564.949 579.208C563.199 579.208 561.834 579.443 560.853 579.912C559.871 580.381 559.189 581.277 558.805 582.6C558.421 583.923 558.229 585.843 558.229 588.36C558.229 591.005 558.463 593.053 558.933 594.504C559.402 595.912 560.191 596.893 561.301 597.448C562.453 598.003 564.031 598.28 566.037 598.28C567.487 598.28 569.279 598.237 571.413 598.152C573.589 598.024 575.765 597.832 577.941 597.576L578.837 603.4C577.599 603.997 576.191 604.467 574.613 604.808C573.034 605.149 571.413 605.384 569.749 605.512C568.085 605.683 566.485 605.768 564.949 605.768C560.938 605.768 557.695 605.192 555.22 604.04C552.789 602.845 551.018 601.032 549.909 598.6C548.842 596.168 548.309 593.053 548.309 589.256C548.309 585.117 548.863 581.832 549.973 579.4C551.082 576.968 552.831 575.219 555.22 574.152C557.61 573.085 560.746 572.552 564.628 572.552ZM593.202 573.384L594.354 579.656L595.25 580.488V605H585.778V573.384H593.202ZM608.626 572.552L607.73 581.32H605.106C603.612 581.32 602.055 581.533 600.434 581.96C598.812 582.387 596.764 583.027 594.29 583.88L593.65 578.568C595.868 576.605 598.108 575.112 600.37 574.088C602.631 573.064 604.828 572.552 606.962 572.552H608.626ZM627.045 572.552C630.714 572.552 633.616 572.893 635.749 573.576C637.925 574.259 639.482 575.325 640.421 576.776C641.402 578.227 641.893 580.168 641.893 582.6C641.893 584.947 641.424 586.867 640.485 588.36C639.546 589.811 637.968 590.877 635.749 591.56C633.573 592.243 630.65 592.584 626.981 592.584C623.312 592.584 620.368 592.243 618.149 591.56C615.973 590.877 614.394 589.811 613.413 588.36C612.474 586.909 612.005 584.989 612.005 582.6C612.005 580.211 612.474 578.291 613.413 576.84C614.394 575.347 615.994 574.259 618.213 573.576C620.432 572.893 623.376 572.552 627.045 572.552ZM626.981 578.376C624.634 578.376 623.013 578.696 622.117 579.336C621.221 579.933 620.773 581.021 620.773 582.6C620.773 584.179 621.221 585.288 622.117 585.928C623.013 586.568 624.634 586.888 626.981 586.888C629.328 586.888 630.928 586.568 631.781 585.928C632.634 585.288 633.061 584.179 633.061 582.6C633.061 581.021 632.634 579.933 631.781 579.336C630.928 578.696 629.328 578.376 626.981 578.376ZM645.541 573.384L645.029 577.416L636.581 578.504L634.277 573.384H645.541ZM617.445 590.664L622.181 591.496C621.584 591.837 621.157 592.371 620.901 593.096C620.688 593.821 620.752 594.504 621.093 595.144C621.434 595.784 622.181 596.168 623.333 596.296L634.981 597.64C638.309 597.981 640.656 598.92 642.021 600.456C643.386 601.949 644.069 604.147 644.069 607.048C644.069 609.779 643.514 611.869 642.405 613.32C641.296 614.813 639.525 615.837 637.093 616.392C634.661 616.947 631.418 617.224 627.365 617.224C624.037 617.224 621.285 617.053 619.109 616.712C616.976 616.413 615.269 615.901 613.989 615.176C612.752 614.451 611.877 613.491 611.365 612.296C610.896 611.144 610.661 609.693 610.661 607.944C610.661 606.621 610.896 605.491 611.365 604.552C611.834 603.571 612.624 602.696 613.733 601.928C614.885 601.16 616.485 600.456 618.533 599.816L623.205 598.152L626.597 599.496L624.037 601.16C622.97 601.928 622.096 602.589 621.413 603.144C620.773 603.656 620.304 604.168 620.005 604.68C619.749 605.192 619.621 605.875 619.621 606.728C619.621 607.709 619.834 608.456 620.261 608.968C620.688 609.523 621.456 609.885 622.565 610.056C623.717 610.269 625.274 610.376 627.237 610.376C629.285 610.376 630.885 610.269 632.037 610.056C633.189 609.885 633.978 609.544 634.405 609.032C634.874 608.52 635.109 607.795 635.109 606.856C635.109 606.045 634.938 605.448 634.597 605.064C634.298 604.68 633.765 604.403 632.997 604.232C632.272 604.019 631.248 603.827 629.925 603.656L620.005 602.568C618.341 602.397 617.04 601.949 616.101 601.224C615.162 600.499 614.501 599.624 614.117 598.6C613.776 597.533 613.69 596.467 613.861 595.4C614.032 594.333 614.416 593.373 615.013 592.52C615.653 591.667 616.464 591.048 617.445 590.664Z" fill="white"/>
<defs>
<filter id="filter0_f_5_173" x="-170" y="-648.951" width="1884.26" height="1877.95" filterUnits="userSpaceOnUse" color-interpolation-filters="sRGB">
<feFlood flood-opacity="0" result="BackgroundImageFix"/>
<feBlend mode="normal" in="SourceGraphic" in2="BackgroundImageFix" result="shape"/>
<feGaussianBlur stdDeviation="350" result="effect1_foregroundBlur_5_173"/>
</filter>
<filter id="filter1_f_5_173" x="-119.262" y="-827" width="1884.26" height="1877.95" filterUnits="userSpaceOnUse" color-interpolation-filters="sRGB">
<feFlood flood-opacity="0" result="BackgroundImageFix"/>
<feBlend mode="normal" in="SourceGraphic" in2="BackgroundImageFix" result="shape"/>
<feGaussianBlur stdDeviation="350" result="effect1_foregroundBlur_5_173"/>
</filter>
<clipPath id="clip0_5_173">
<rect x="5" width="963" height="692" rx="1.6892" fill="white"/>
</clipPath>
</defs>
</svg>
